<svg xmlns="http://www.w3.org/2000/svg" viewBox="0 0 404.04 339.16"><defs><style>.cls-1{fill:#592219;}.cls-2{fill:#6b3a32;}.cls-3{fill:#7e534c;}.cls-4{fill:#f4f4f4;}.cls-5{fill:#c3cfd8;}.cls-6{fill:#4d84ab;}.cls-7{fill:#619ac6;}.cls-8{fill:#01193f;}.cls-9{fill:#6cacdc;}.cls-10{fill:#fff;}.cls-11{fill:#f60;}.cls-12{fill:#f8f7f5;}.cls-13{fill:#d8d1c9;}.cls-14{fill:#f90;}</style></defs><title>icslibd4l-02</title><g id="Layer_6" data-name="Layer 6"><polygon class="cls-1" points="115.61 214.3 202.24 261.53 202.04 133.53 115.42 86.45 115.61 214.3"/><polygon class="cls-2" points="288.71 209.24 202.24 261.53 202.04 133.53 288.51 81.09 288.71 209.24"/><polygon class="cls-3" points="115.42 86.45 201.88 34.01 288.51 81.09 202.04 133.53 115.42 86.45"/><polygon class="cls-4" points="138.31 122.02 127.32 128.56 116.32 135.09 105.33 141.62 105.33 141.63 105.32 141.63 94.33 148.16 94.33 148.16 83.33 154.7 72.33 161.23 61.34 154.86 61.34 154.86 50.34 148.48 61.33 141.94 61.34 141.94 72.33 135.41 72.33 135.4 83.33 128.87 83.33 128.87 83.33 128.87 94.33 122.34 94.33 122.33 105.32 115.8 105.33 115.8 116.32 109.26 127.32 115.64 138.31 122.02"/><path class="cls-5" d="M72.33,264.53V187.06h0V161.23l-11-6.37h0l-11-6.38v38.73h0V226h0v38.6l.12.07,10.88,6.31.12.07,10.87,6.3Z"/><polygon class="cls-6" points="149.31 115.48 149.31 115.49 138.31 122.02 127.32 115.64 116.32 109.26 127.32 102.73 138.32 109.11 149.31 115.48"/><polygon class="cls-6" points="193.3 140.99 182.3 147.53 171.31 141.15 171.31 141.15 160.31 134.78 160.31 134.77 171.31 128.24 182.3 134.62 193.3 140.99"/><polygon class="cls-4" points="182.3 147.53 171.3 154.06 160.31 160.59 160.31 160.6 160.3 160.6 149.31 167.13 149.31 167.13 138.31 173.67 138.31 173.67 127.32 180.2 116.32 186.74 116.32 186.74 105.33 180.36 105.32 180.36 94.33 173.99 94.33 173.98 105.32 167.45 116.32 160.92 127.32 154.38 138.31 147.85 138.31 147.84 149.31 141.31 149.31 141.31 160.31 134.78 160.31 134.78 171.31 141.15 171.31 141.15 182.3 147.53"/><path class="cls-5" d="M116.33,290h0v-12.9h0v-12.9h0V225.48h0V186.74h0l-11-6.38h0l-11-6.37v25.82h0v38.73h0v25.82h0v25.69l.11.07h0l10.87,6.3.12.07,10.89,6.31Z"/><polygon class="cls-7" points="94.33 290.06 83.45 283.75 83.33 283.68 83.33 257.86 83.33 245.08 83.33 232.17 83.33 232.17 83.33 206.35 83.33 206.34 83.33 193.44 83.33 180.52 83.33 167.61 94.32 173.99 94.33 173.99 94.33 186.9 94.33 199.81 94.33 199.81 94.33 212.72 94.33 225.64 94.33 238.54 94.33 238.55 94.33 251.46 94.33 264.24 94.33 264.37 94.33 264.37 94.33 290.06"/><polygon class="cls-8" points="149.31 128.4 138.31 134.93 138.31 134.93 138.31 134.93 127.32 141.47 127.31 141.47 116.32 148 105.32 154.54 94.33 161.07 94.33 161.07 83.33 167.6 83.33 167.61 83.33 180.52 83.33 193.44 83.33 206.34 83.33 206.35 83.33 232.17 83.33 232.17 83.33 245.08 83.34 271.1 72.33 277.3 72.33 264.39 72.33 251.48 72.33 238.7 72.33 225.79 72.34 212.88 72.33 199.97 72.34 187.06 72.33 187.06 72.33 174.14 72.33 161.23 83.33 154.7 94.33 148.16 94.33 148.16 105.32 141.63 105.33 141.63 105.33 141.62 116.32 135.09 127.32 128.56 138.31 122.02 149.31 115.49 149.31 128.4"/><path class="cls-8" d="M193.3,244.29h0V218.46h0V141l-11,6.53-11,6.54-11,6.53h0l-11,6.53h0l-11,6.53h0l-11,6.53-11,6.54v38.73h0v38.73h0v38.59l22-12.93.12-.07,10.88-6.47h0l11-6.53,11-6.53h0l11-6.53h0l11-6.53Zm-66-51.17,11-6.54,11-6.54,11-6.53v12.91l-11,6.54-11,6.54-11,6.53Zm0,25.82,11-6.54,11-6.53,11-6.53v12.9l-11,6.54h0l-11,6.53-11,6.54Zm0,25.83h0l11-6.53h0l11-6.53,11-6.54,11-6.54,11-6.53V225l-11,6.54h0l-11,6.53h0l-11,6.53h0l-11,6.54-11,6.53Zm44,12.59-11,6.54-11,6.53-11,6.53h0l-10.88,6.46-.11.07V270.59l11-6.53h0l11-6.54,11-6.54,11-6.53h0l11-6.53v12.9Z"/><polygon class="cls-9" points="171.31 128.24 160.31 134.77 160.31 134.78 160.31 134.78 149.31 141.31 149.31 141.31 138.31 147.84 138.31 147.85 127.32 154.38 116.32 160.92 105.32 167.45 94.33 173.98 94.33 173.99 94.32 173.99 83.33 167.61 83.33 167.6 94.33 161.07 94.33 161.07 105.32 154.54 116.32 148 127.31 141.47 127.32 141.47 138.31 134.93 138.31 134.93 138.31 134.93 149.31 128.4 160.31 121.86 171.31 128.24"/><polygon class="cls-10" points="160.31 212.25 149.31 218.78 149.31 218.79 138.31 225.32 127.32 231.85 127.32 218.94 138.31 212.4 149.31 205.87 160.31 199.34 160.31 212.25"/><polygon class="cls-10" points="182.3 250.82 171.31 257.36 160.31 263.9 149.31 270.43 138.32 276.96 138.31 276.96 127.32 283.37 127.32 270.59 138.31 264.06 138.32 264.06 149.31 257.52 160.31 250.98 171.3 244.45 171.31 244.45 182.3 237.91 182.3 250.82"/><polygon class="cls-10" points="160.31 186.42 149.31 192.96 138.31 199.5 127.31 206.03 127.32 193.12 138.31 186.58 149.31 180.04 160.31 173.51 160.31 186.42"/><polygon class="cls-9" points="127.32 102.73 116.32 109.26 105.33 115.8 105.32 115.8 94.33 122.33 94.33 122.34 83.33 128.87 83.33 128.87 83.33 128.87 72.33 135.4 72.33 135.41 61.34 141.94 61.33 141.94 50.34 148.48 39.46 142.17 50.34 135.71 50.45 135.64 61.34 129.17 61.45 129.1 72.33 122.63 72.45 122.56 83.33 116.09 83.45 116.03 94.33 109.56 94.44 109.5 105.33 103.03 105.44 102.96 116.32 96.49 116.44 96.42 127.32 102.73"/><polygon class="cls-7" points="50.34 264.55 39.34 258.17 39.35 219.58 39.34 206.67 39.34 206.66 39.35 193.75 39.35 193.75 39.34 180.84 39.34 167.93 39.34 167.92 39.34 155.01 39.35 155.01 39.34 142.24 39.46 142.17 50.34 148.48 50.34 161.39 50.34 174.3 50.34 187.21 50.34 187.22 50.34 200.13 50.34 213.04 50.34 225.95 50.34 225.95 50.34 264.55"/><line class="cls-10" x1="39.34" y1="232.48" x2="39.35" y2="232.35"/><line class="cls-10" x1="39.34" y1="245.41" x2="39.34" y2="245.26"/><polygon class="cls-10" points="182.3 225 171.31 231.54 160.31 238.07 149.31 244.61 138.32 251.14 138.31 251.14 127.32 257.54 127.32 244.77 138.31 238.23 138.32 238.23 149.31 231.7 160.31 225.16 171.3 218.62 171.31 218.63 182.3 212.09 182.3 225"/><polygon class="cls-11" points="229.52 132.09 222.76 135.94 222.76 135.95 222.76 135.95 216.01 139.78 216 139.78 209.25 135.94 216 132.1 216.01 132.09 222.76 128.25 229.52 132.09"/><polygon class="cls-11" points="249.79 120.56 243.04 124.4 243.04 124.41 236.28 128.25 236.28 128.25 229.53 124.41 236.28 120.56 236.29 120.56 243.04 116.72 243.04 116.72 249.79 120.56"/><polygon class="cls-12" points="324.14 162.86 317.39 166.7 317.38 166.7 310.63 170.55 303.86 166.7 297.11 162.86 290.35 159.01 283.59 155.17 276.83 151.32 276.83 151.32 276.83 151.32 270.07 147.47 263.32 143.63 263.32 143.63 263.31 143.63 256.56 139.79 256.56 139.79 256.56 139.78 249.8 135.94 249.79 135.94 243.04 132.09 236.28 128.25 249.79 120.56 249.8 120.56 256.56 124.4 256.56 124.41 256.56 124.41 263.31 128.25 263.32 128.25 270.07 132.09 276.83 135.94 276.83 135.94 283.59 139.78 290.35 143.63 297.11 147.47 297.11 147.48 303.86 151.32 303.86 151.32 303.87 151.32 310.63 155.17 317.38 159.01 324.14 162.86"/><polygon class="cls-13" points="324.14 162.86 324.14 285.92 317.38 289.76 317.38 289.77 310.63 293.61 310.63 170.55 317.38 166.7 317.39 166.7 324.14 162.86"/><polygon class="cls-14" points="310.63 170.55 310.63 293.61 303.87 289.77 303.86 289.77 303.86 220.55 303.86 220.54 303.86 174.39 290.35 166.7 290.35 166.7 283.59 162.86 276.83 159.01 270.07 155.17 270.07 155.16 263.32 151.32 263.32 151.32 256.56 147.47 249.81 143.63 249.8 143.63 249.8 143.63 243.04 139.78 236.28 135.94 229.52 132.09 229.52 124.41 229.53 124.41 236.28 128.25 236.28 128.25 243.04 132.09 249.79 135.94 249.8 135.94 256.56 139.78 256.56 139.79 256.56 139.79 263.31 143.63 263.32 143.63 263.32 143.63 270.07 147.47 276.83 151.32 276.83 151.32 283.59 155.17 290.35 159.01 297.11 162.86 303.86 166.7 310.63 170.55"/><line class="cls-10" x1="229.53" y1="147.47" x2="229.52" y2="147.48"/><polygon class="cls-12" points="344.42 151.32 337.66 155.16 337.66 155.17 337.65 155.17 330.9 159.01 330.9 159.01 330.9 159.01 324.14 155.17 324.14 155.16 317.39 151.32 317.38 151.32 317.38 151.32 310.63 147.47 303.87 143.63 303.86 143.63 303.86 143.62 297.11 139.78 290.35 135.94 290.35 135.94 290.35 135.93 283.59 132.09 276.83 128.25 276.83 128.25 270.08 124.41 270.07 124.4 263.32 120.56 263.32 120.55 256.56 116.71 263.31 112.87 263.32 112.86 270.07 109.02 276.83 112.86 276.84 112.86 276.85 112.86 283.59 116.71 283.6 116.71 297.11 124.4 310.63 132.09 310.63 132.09 317.38 135.94 317.39 135.94 330.9 143.63 330.9 143.63 337.65 147.47 337.66 147.47 337.66 147.48 344.42 151.32"/><polygon class="cls-12" points="364.7 139.71 357.95 143.55 357.95 143.56 357.94 143.56 351.19 147.4 351.19 147.4 351.19 147.4 344.43 143.55 344.42 143.55 337.67 139.71 337.67 139.71 337.67 139.71 330.91 135.86 324.16 132.02 324.15 132.02 324.15 132.01 317.39 128.17 310.64 124.33 310.63 124.33 310.63 124.32 303.88 120.48 297.12 116.64 297.12 116.64 290.37 112.79 290.36 112.79 283.61 108.95 283.6 108.94 276.85 105.1 283.6 101.26 283.6 101.25 290.36 97.41 297.12 101.26 297.13 101.25 297.13 101.25 303.88 105.1 303.88 105.1 310.63 108.94 310.63 108.95 317.39 112.79 324.15 116.63 324.16 116.64 330.91 120.48 330.91 120.48 337.67 124.33 337.67 124.33 351.19 132.02 351.19 132.02 357.94 135.86 357.95 135.87 364.7 139.71"/><polyline class="cls-10" points="330.9 143.63 330.9 143.62 324.14 139.78"/><polyline class="cls-10" points="317.38 135.94 317.38 135.93 310.63 132.09 303.86 128.24 303.86 128.24 297.11 124.4"/><polyline class="cls-10" points="290.35 120.55 290.35 120.55 283.6 116.71"/><polyline class="cls-10" points="283.59 116.71 283.59 116.7 276.85 112.86"/><polygon class="cls-11" points="270.07 109.02 263.32 112.86 263.31 112.87 256.56 116.71 256.56 116.71 249.89 112.92 249.97 112.87 249.98 112.87 263.32 105.27 263.4 105.23 270.07 109.02"/><polygon class="cls-11" points="290.36 97.41 283.6 101.25 283.6 101.26 276.85 105.1 276.84 105.1 270.18 101.31 270.26 101.26 270.26 101.26 276.84 97.51 276.93 97.46 277.01 97.42 277.02 97.41 283.6 93.66 283.69 93.62 290.36 97.41"/><polygon class="cls-14" points="330.9 159.01 330.9 282.07 324.14 278.23 324.14 162.86 317.38 159.01 310.63 155.17 303.87 151.32 303.86 151.32 303.86 151.32 297.11 147.48 297.11 147.47 290.35 143.63 283.59 139.78 276.83 135.94 276.83 135.94 270.07 132.09 263.32 128.25 263.31 128.25 256.56 124.41 256.56 124.41 256.56 124.4 249.8 120.56 249.8 112.97 249.89 112.92 256.56 116.71 256.56 116.72 263.32 120.55 263.32 120.56 270.07 124.4 270.08 124.41 276.83 128.25 276.83 128.25 283.59 132.09 290.35 135.94 290.35 135.94 303.86 143.63 303.87 143.63 310.63 147.47 317.38 151.32 317.39 151.32 330.9 159.01"/><polygon class="cls-13" points="344.42 151.32 344.42 274.38 337.66 278.23 337.65 278.23 330.9 282.07 330.9 159.01 330.9 159.01 337.65 155.17 337.66 155.17 344.42 151.32"/><polygon class="cls-13" points="364.7 139.78 364.7 262.85 357.94 266.69 357.93 266.69 351.18 270.54 351.18 147.48 351.19 147.48 357.93 143.63 357.94 143.63 364.7 139.78"/><path class="cls-14" d="M283.59,178.24l-6.75-3.85-6.77-3.84-6.75-3.85-6.76-3.84L249.8,159,243,155.16h0l-6.75-3.84h0l-6.75-3.85h0l-6.75-3.84h0L216,139.78h0l-6.75-3.84h0v61.53h0V259l6.75,3.83h0l6.77,3.84,6.75,3.85,6.76,3.84,6.76,3.85,6.75,3.84h0l6.76,3.84h0l6.75,3.85h0l6.75,3.84,6.76,3.85h0l6.75,3.84,6.76,3.85V182.08Zm-27,84.6L249.8,259,243,255.15l-6.76-3.84-6.75-3.85h0l-.21-.2V231.88l7,4h0l6.76,3.84h0l6.75,3.84h0l6.76,3.84Zm6.76-42.29h0l-6.75-3.84h0l-6.76-3.84h0L243,209l-6.76-3.85h0l-6.76-3.84V170.55l6.76,3.84h0l6.76,3.85,6.75,3.85h0l6.76,3.84,6.75,3.85h0Z"/><path class="cls-10" d="M256.56,185.93l-6.76-3.84h0L243,178.24l-13.52-7.69v30.77l6.76,3.84h0L243,209l6.75,3.84h0l6.76,3.85h0l6.75,3.84h0V189.78Z"/><polygon class="cls-10" points="263.11 251.11 263.11 266.49 256.35 262.65 249.59 258.8 242.83 254.96 236.08 251.11 236.07 251.11 236.07 251.11 229.31 247.26 229.31 231.88 242.82 239.57 242.83 239.57 242.83 239.58 249.59 243.42 249.59 243.43 256.34 247.27 256.35 247.27 263.11 251.11"/><polygon class="cls-12" points="303.86 174.39 303.86 174.4 297.11 178.24 290.35 182.09 290.35 182.09 290.35 182.08 283.59 178.24 276.83 174.39 270.07 170.55 263.32 166.7 256.56 162.86 249.8 159.01 243.04 155.16 243.04 155.16 236.29 151.32 236.28 151.32 236.28 151.32 229.53 147.47 229.52 147.47 222.77 143.63 222.76 143.63 222.76 143.63 216.01 139.78 222.76 135.95 222.76 135.95 222.76 135.94 229.52 132.09 236.28 135.94 243.04 139.78 249.8 143.63 249.8 143.63 249.81 143.63 256.56 147.47 263.32 151.32 263.32 151.32 270.07 155.16 270.07 155.17 276.83 159.01 283.59 162.86 290.35 166.7 290.35 166.7 303.86 174.39"/><polygon class="cls-13" points="303.86 174.4 303.86 297.46 297.11 301.3 290.35 305.15 290.35 243.62 290.35 243.61 290.35 212.86 290.35 212.85 290.35 182.09 290.35 182.09 297.11 178.24 303.86 174.4"/><polygon class="cls-14" points="351.13 147.42 351.13 270.48 344.38 266.64 344.37 266.64 344.38 197.41 344.37 197.41 344.37 151.26 330.86 143.57 330.85 143.57 324.1 139.73 317.34 135.88 310.58 132.04 310.58 132.03 297.06 124.34 283.55 116.65 270.03 108.96 270.03 101.28 270.03 101.28 276.78 105.12 276.79 105.12 283.55 108.96 290.3 112.81 290.31 112.81 297.06 116.65 297.06 116.66 303.82 120.5 303.82 120.5 310.58 124.34 317.34 128.19 317.34 128.19 324.1 132.04 330.85 135.88 337.62 139.73 351.13 147.42"/></g></svg>