<svg width="60" height="60" viewBox="0 0 60 60" fill="none" xmlns="http://www.w3.org/2000/svg">
<path d="M42.5 7.50003C43.1565 6.8434 43.936 6.32255 44.794 5.9672C45.652 5.61185 46.5715 5.42896 47.5 5.42896C48.4285 5.42896 49.348 5.61185 50.206 5.9672C51.064 6.32255 51.8435 6.8434 52.5 7.50003C53.1565 8.15663 53.6775 8.93613 54.0328 9.79403C54.3883 10.652 54.571 11.5714 54.571 12.5C54.571 13.4286 54.3883 14.3481 54.0328 15.206C53.6775 16.0639 53.1565 16.8434 52.5 17.5L18.75 51.25L5 55L8.75 41.25L42.5 7.50003Z" stroke="#25282B" stroke-width="2" stroke-linecap="round" stroke-linejoin="round"/>
</svg>
